<svg width="25" height="25" viewBox="0 0 25 25" fill="none" xmlns="http://www.w3.org/2000/svg">
<g clip-path="url(#clip0)">
<path d="M23.197 0H1.80302C0.80719 0 0 0.80719 0 1.80302V23.197C0 24.1928 0.80719 25 1.80302 25H13.3545V15.332H10.1074V11.5479H13.3545V8.76293C13.3545 5.53341 15.3261 3.7756 18.207 3.7756C19.5868 3.7756 20.7726 3.8784 21.1182 3.92437V7.2998H19.1317C17.5642 7.2998 17.2607 8.04462 17.2607 9.13773V11.5479H21.0083L20.52 15.332H17.2607V25H23.197C24.1928 25 25 24.1928 25 23.197V1.80302C25 0.80719 24.1928 0 23.197 0V0Z" fill="white"/>
</g>
<defs>
<clipPath id="clip0">
<rect width="25" height="25" fill="white"/>
</clipPath>
</defs>
</svg>
